<svg width="60" height="61" viewBox="0 0 60 61" fill="none" xmlns="http://www.w3.org/2000/svg">
<rect y="0.432495" width="60" height="60" rx="30" fill="#417398"/>
<g clip-path="url(#clip0_0_233)">
<path d="M22 18.4325H25C27.2091 18.4325 29 20.2234 29 22.4325V25.4325C29 27.6416 27.2091 29.4325 25 29.4325H22C19.7909 29.4325 18 27.6417 18 25.4325V22.4325C18 20.2234 19.7909 18.4325 22 18.4325Z" fill="white"/>
<path d="M34.9999 18.4325H37.9999C40.209 18.4325 41.9998 20.2234 41.9998 22.4325V25.4325C41.9998 27.6416 40.209 29.4325 37.9999 29.4325H34.9999C32.7907 29.4325 30.9999 27.6416 30.9999 25.4325V22.4325C30.9998 20.2234 32.7907 18.4325 34.9999 18.4325Z" fill="white"/>
<path d="M22 31.4325H25C27.2091 31.4325 29 33.2234 29 35.4325V38.4325C29 40.6416 27.2091 42.4325 25 42.4325H22C19.7909 42.4325 18 40.6417 18 38.4326V35.4326C18 33.2234 19.7909 31.4325 22 31.4325Z" fill="white"/>
<path d="M34.9999 31.4325H37.9999C40.209 31.4325 41.9998 33.2234 41.9998 35.4325V38.4325C41.9998 40.6417 40.209 42.4325 37.9999 42.4325H34.9999C32.7907 42.4325 30.9999 40.6417 30.9999 38.4326V35.4326C30.9998 33.2234 32.7907 31.4325 34.9999 31.4325Z" fill="white"/>
</g>
<defs>
<clipPath id="clip0_0_233">
<rect width="24" height="24" fill="white" transform="translate(18 18.4325)"/>
</clipPath>
</defs>
</svg>
