<svg width="48" height="49" viewBox="0 0 48 49" fill="none" xmlns="http://www.w3.org/2000/svg">
<g clip-path="url(#clip0_0_262)">
<path d="M23.5935 35.591H17.3337C15.6325 35.591 14.2522 34.2056 14.2522 32.5095V17.423C14.2522 15.7218 15.6376 14.3415 17.3337 14.3415H23.6954C24.0774 14.3415 24.383 14.0359 24.383 13.6539C24.383 13.2719 24.0774 12.9662 23.6954 12.9662H17.3337C14.8736 12.9662 12.877 14.9679 12.877 17.423V32.5095C12.877 34.9696 14.8787 36.9662 17.3337 36.9662H23.5935C23.9755 36.9662 24.2811 36.6606 24.2811 36.2786C24.2811 35.8966 23.9704 35.591 23.5935 35.591Z" fill="black"/>
<path d="M34.9212 24.4824L30.5511 20.1123C30.2811 19.8423 29.8482 19.8423 29.5782 20.1123C29.3083 20.3822 29.3083 20.8151 29.5782 21.0851L32.7769 24.2837H18.8261C18.4441 24.2837 18.1385 24.5893 18.1385 24.9713C18.1385 25.3533 18.4441 25.6589 18.8261 25.6589H32.7769L29.5782 28.8576C29.3083 29.1275 29.3083 29.5605 29.5782 29.8304C29.7106 29.9628 29.8889 30.0342 30.0621 30.0342C30.2353 30.0342 30.4135 29.9679 30.546 29.8304L34.9161 25.4603C35.1911 25.1853 35.1911 24.7472 34.9212 24.4824Z" fill="black"/>
</g>
<defs>
<clipPath id="clip0_0_262">
<rect width="24" height="24" fill="white" transform="translate(12 12.9662)"/>
</clipPath>
</defs>
</svg>
