<svg width="44" height="45" viewBox="0 0 44 45" fill="none" xmlns="http://www.w3.org/2000/svg">
<circle cx="22" cy="22.9325" r="22" fill="#E7EEE9"/>
<g clip-path="url(#clip0_0_459)">
<path d="M30.5 28.9325L28.732 30.6615C28.26 31.1335 28 31.7615 28 32.4295C28 33.0975 28.26 33.7245 28.732 34.1975C29.204 34.6705 29.832 34.9295 30.5 34.9295C31.168 34.9295 31.796 34.6695 32.268 34.1975C32.74 33.7245 33 33.0965 33 32.4295C33 31.7625 32.74 31.1335 32.264 30.6585L30.5 28.9325ZM31.561 33.4905C30.996 34.0555 30.007 34.0575 29.44 33.4905C29.157 33.2075 29.001 32.8305 29.001 32.4295C29.001 32.0285 29.157 31.6525 29.437 31.3725L30.501 30.3305L31.562 31.3685C31.846 31.6515 32.001 32.0275 32.001 32.4295C32.001 32.8315 31.844 33.2065 31.561 33.4905ZM25.5 15.9325H21V11.9325H27V10.9325H14V11.9325H20V15.9325H10V16.9325H20V21.9325H10V22.9325H25.5C26.327 22.9325 27 23.6055 27 24.4325V26.9325H34V24.4325C34 19.7455 30.187 15.9325 25.5 15.9325ZM33 25.9325H28V24.4325C28 23.0535 26.878 21.9325 25.5 21.9325H21V16.9325H25.5C29.636 16.9325 33 20.2965 33 24.4325V25.9325Z" fill="#5D7370"/>
</g>
<defs>
<clipPath id="clip0_0_459">
<rect width="24" height="24" fill="white" transform="translate(10 10.9325)"/>
</clipPath>
</defs>
</svg>
