<svg width="60" height="61" viewBox="0 0 60 61" fill="none" xmlns="http://www.w3.org/2000/svg">
<rect y="0.432495" width="60" height="60" rx="30" fill="white"/>
<path d="M37.5 40.4325H22.5C20.019 40.4325 18 38.4135 18 35.9325V24.9325C18 22.4515 20.019 20.4325 22.5 20.4325H37.5C39.981 20.4325 42 22.4515 42 24.9325V35.9325C42 38.4135 39.981 40.4325 37.5 40.4325ZM22.5 21.4325C20.57 21.4325 19 23.0025 19 24.9325V35.9325C19 37.8625 20.57 39.4325 22.5 39.4325H37.5C39.43 39.4325 41 37.8625 41 35.9325V24.9325C41 23.0025 39.43 21.4325 37.5 21.4325H22.5ZM36.5 31.4325H31.5C30.673 31.4325 30 30.7595 30 29.9325V26.9325C30 26.1055 30.673 25.4325 31.5 25.4325H36.5C37.327 25.4325 38 26.1055 38 26.9325V29.9325C38 30.7595 37.327 31.4325 36.5 31.4325ZM31.5 26.4325C31.224 26.4325 31 26.6565 31 26.9325V29.9325C31 30.2085 31.224 30.4325 31.5 30.4325H36.5C36.776 30.4325 37 30.2085 37 29.9325V26.9325C37 26.6565 36.776 26.4325 36.5 26.4325H31.5ZM28 30.9325C28 30.6565 27.776 30.4325 27.5 30.4325H22.5C22.224 30.4325 22 30.6565 22 30.9325C22 31.2085 22.224 31.4325 22.5 31.4325H27.5C27.776 31.4325 28 31.2085 28 30.9325ZM38 34.9325C38 34.6565 37.776 34.4325 37.5 34.4325H22.5C22.224 34.4325 22 34.6565 22 34.9325C22 35.2085 22.224 35.4325 22.5 35.4325H37.5C37.776 35.4325 38 35.2085 38 34.9325Z" fill="black"/>
</svg>
