<svg width="60" height="61" viewBox="0 0 60 61" fill="none" xmlns="http://www.w3.org/2000/svg">
<rect y="0.966248" width="60" height="60" rx="30" fill="white"/>
<g clip-path="url(#clip0_0_258)">
<path d="M28.5 33.9662H27.5C27.224 33.9662 27 33.7422 27 33.4662C27 33.1902 27.224 32.9662 27.5 32.9662H28.5C28.776 32.9662 29 33.1902 29 33.4662C29 33.7422 28.776 33.9662 28.5 33.9662ZM33 33.4662C33 33.1902 32.776 32.9662 32.5 32.9662H31.5C31.224 32.9662 31 33.1902 31 33.4662C31 33.7422 31.224 33.9662 31.5 33.9662H32.5C32.776 33.9662 33 33.7422 33 33.4662ZM29 37.4662C29 37.1902 28.776 36.9662 28.5 36.9662H27.5C27.224 36.9662 27 37.1902 27 37.4662C27 37.7422 27.224 37.9662 27.5 37.9662H28.5C28.776 37.9662 29 37.7422 29 37.4662ZM33 37.4662C33 37.1902 32.776 36.9662 32.5 36.9662H31.5C31.224 36.9662 31 37.1902 31 37.4662C31 37.7422 31.224 37.9662 31.5 37.9662H32.5C32.776 37.9662 33 37.7422 33 37.4662ZM29 25.4662C29 25.1902 28.776 24.9662 28.5 24.9662H27.5C27.224 24.9662 27 25.1902 27 25.4662C27 25.7422 27.224 25.9662 27.5 25.9662H28.5C28.776 25.9662 29 25.7422 29 25.4662ZM33 25.4662C33 25.1902 32.776 24.9662 32.5 24.9662H31.5C31.224 24.9662 31 25.1902 31 25.4662C31 25.7422 31.224 25.9662 31.5 25.9662H32.5C32.776 25.9662 33 25.7422 33 25.4662ZM29 29.4662C29 29.1902 28.776 28.9662 28.5 28.9662H27.5C27.224 28.9662 27 29.1902 27 29.4662C27 29.7422 27.224 29.9662 27.5 29.9662H28.5C28.776 29.9662 29 29.7422 29 29.4662ZM33 29.4662C33 29.1902 32.776 28.9662 32.5 28.9662H31.5C31.224 28.9662 31 29.1902 31 29.4662C31 29.7422 31.224 29.9662 31.5 29.9662H32.5C32.776 29.9662 33 29.7422 33 29.4662ZM42 38.4082V28.4662C42 25.9852 39.981 23.9662 37.5 23.9662H37V23.5242C37 21.0112 34.956 18.9662 32.442 18.9662H27.5C25.019 18.9662 23 20.9852 23 23.4662V27.9662H22.5C20.019 27.9662 18 29.9852 18 32.4662V38.4662C18 40.9472 20.019 42.9662 22.5 42.9662H37.442C39.955 42.9662 42 40.9212 42 38.4082ZM23.5 28.9662C23.776 28.9662 24 28.7422 24 28.4662V23.4662C24 21.5362 25.57 19.9662 27.5 19.9662H32.442C34.404 19.9662 36 21.5622 36 23.5242V24.4662C36 24.7422 36.224 24.9662 36.5 24.9662H37.5C39.43 24.9662 41 26.5362 41 28.4662V38.4082C41 40.3702 39.404 41.9662 37.442 41.9662H22.5C20.57 41.9662 19 40.3962 19 38.4662V32.4662C19 30.5362 20.57 28.9662 22.5 28.9662H23.5ZM38 33.4662C38 33.1902 37.776 32.9662 37.5 32.9662H36.5C36.224 32.9662 36 33.1902 36 33.4662C36 33.7422 36.224 33.9662 36.5 33.9662H37.5C37.776 33.9662 38 33.7422 38 33.4662ZM38 37.4662C38 37.1902 37.776 36.9662 37.5 36.9662H36.5C36.224 36.9662 36 37.1902 36 37.4662C36 37.7422 36.224 37.9662 36.5 37.9662H37.5C37.776 37.9662 38 37.7422 38 37.4662ZM24 33.4662C24 33.1902 23.776 32.9662 23.5 32.9662H22.5C22.224 32.9662 22 33.1902 22 33.4662C22 33.7422 22.224 33.9662 22.5 33.9662H23.5C23.776 33.9662 24 33.7422 24 33.4662ZM24 37.4662C24 37.1902 23.776 36.9662 23.5 36.9662H22.5C22.224 36.9662 22 37.1902 22 37.4662C22 37.7422 22.224 37.9662 22.5 37.9662H23.5C23.776 37.9662 24 37.7422 24 37.4662ZM38 29.4662C38 29.1902 37.776 28.9662 37.5 28.9662H36.5C36.224 28.9662 36 29.1902 36 29.4662C36 29.7422 36.224 29.9662 36.5 29.9662H37.5C37.776 29.9662 38 29.7422 38 29.4662Z" fill="black"/>
</g>
<defs>
<clipPath id="clip0_0_258">
<rect width="24" height="24" fill="white" transform="translate(18 18.9662)"/>
</clipPath>
</defs>
</svg>
