<svg width="44" height="45" viewBox="0 0 44 45" fill="none" xmlns="http://www.w3.org/2000/svg">
<circle cx="22" cy="22.9325" r="22" fill="#E7EEE9"/>
<g clip-path="url(#clip0_0_499)">
<path d="M31.5 10.9325H12.5C11.121 10.9325 10 12.0545 10 13.4325V21.9325H34V13.4325C34 12.0545 32.879 10.9325 31.5 10.9325ZM33 20.9325H11V13.4325C11 12.6055 11.673 11.9325 12.5 11.9325H31.5C32.327 11.9325 33 12.6055 33 13.4325V20.9325ZM13 16.9325H31V17.9325H13V16.9325ZM17 23.9325H18V31.4325C18 33.3625 16.43 34.9325 14.5 34.9325C12.57 34.9325 11 33.3625 11 31.4325C11 29.5025 12.57 27.9325 14.5 27.9325V28.9325C13.121 28.9325 12 30.0545 12 31.4325C12 32.8105 13.121 33.9325 14.5 33.9325C15.879 33.9325 17 32.8105 17 31.4325V23.9325ZM33 31.4325C33 33.3625 31.43 34.9325 29.5 34.9325C27.57 34.9325 26 33.3625 26 31.4325V23.9325H27V31.4325C27 32.8105 28.121 33.9325 29.5 33.9325C30.879 33.9325 32 32.8105 32 31.4325C32 30.0545 30.879 28.9325 29.5 28.9325V27.9325C31.43 27.9325 33 29.5025 33 31.4325ZM21.5 23.9325H22.5V34.9325H21.5V23.9325Z" fill="#5D7370"/>
</g>
<defs>
<clipPath id="clip0_0_499">
<rect width="24" height="24" fill="white" transform="translate(10 10.9325)"/>
</clipPath>
</defs>
</svg>
