<svg width="60" height="61" viewBox="0 0 60 61" fill="none" xmlns="http://www.w3.org/2000/svg">
<rect y="0.966248" width="60" height="60" rx="30" fill="white"/>
<g clip-path="url(#clip0_0_240)">
<path d="M29.5 31.9662C31.981 31.9662 34 29.9472 34 27.4662C34 24.9852 31.981 22.9662 29.5 22.9662C27.019 22.9662 25 24.9852 25 27.4662C25 29.9472 27.019 31.9662 29.5 31.9662ZM29.5 23.9662C31.43 23.9662 33 25.5362 33 27.4662C33 29.3962 31.43 30.9662 29.5 30.9662C27.57 30.9662 26 29.3962 26 27.4662C26 25.5362 27.57 23.9662 29.5 23.9662ZM37 41.4662V42.4662C37 42.7422 36.776 42.9662 36.5 42.9662C36.224 42.9662 36 42.7422 36 42.4662V41.4662C36 37.8822 33.084 34.9662 29.5 34.9662C25.916 34.9662 23 37.8822 23 41.4662V42.4662C23 42.7422 22.776 42.9662 22.5 42.9662C22.224 42.9662 22 42.7422 22 42.4662V41.4662C22 37.3302 25.364 33.9662 29.5 33.9662C33.636 33.9662 37 37.3302 37 41.4662Z" fill="black"/>
</g>
<defs>
<clipPath id="clip0_0_240">
<rect width="24" height="24" fill="white" transform="translate(18 18.9662)"/>
</clipPath>
</defs>
</svg>
