<svg width="60" height="61" viewBox="0 0 60 61" fill="none" xmlns="http://www.w3.org/2000/svg">
<rect y="0.966248" width="60" height="60" rx="30" fill="white"/>
<g clip-path="url(#clip0_0_249)">
<path d="M37.5 20.9662H36V19.4662C36 19.1902 35.776 18.9662 35.5 18.9662C35.224 18.9662 35 19.1902 35 19.4662V20.9662H25V19.4662C25 19.1902 24.776 18.9662 24.5 18.9662C24.224 18.9662 24 19.1902 24 19.4662V20.9662H22.5C20.019 20.9662 18 22.9852 18 25.4662V38.4662C18 40.9472 20.019 42.9662 22.5 42.9662H37.5C39.981 42.9662 42 40.9472 42 38.4662V25.4662C42 22.9852 39.981 20.9662 37.5 20.9662ZM22.5 21.9662H37.5C39.43 21.9662 41 23.5362 41 25.4662V26.9662H19V25.4662C19 23.5362 20.57 21.9662 22.5 21.9662ZM37.5 41.9662H22.5C20.57 41.9662 19 40.3962 19 38.4662V27.9662H41V38.4662C41 40.3962 39.43 41.9662 37.5 41.9662ZM37 32.4662C37 32.7422 36.776 32.9662 36.5 32.9662H23.5C23.224 32.9662 23 32.7422 23 32.4662C23 32.1902 23.224 31.9662 23.5 31.9662H36.5C36.776 31.9662 37 32.1902 37 32.4662ZM30 37.4662C30 37.7422 29.776 37.9662 29.5 37.9662H23.5C23.224 37.9662 23 37.7422 23 37.4662C23 37.1902 23.224 36.9662 23.5 36.9662H29.5C29.776 36.9662 30 37.1902 30 37.4662Z" fill="black"/>
</g>
<defs>
<clipPath id="clip0_0_249">
<rect width="24" height="24" fill="white" transform="translate(18 18.9662)"/>
</clipPath>
</defs>
</svg>
