<svg width="60" height="61" viewBox="0 0 60 61" fill="none" xmlns="http://www.w3.org/2000/svg">
<rect y="0.966248" width="60" height="60" rx="30" fill="white"/>
<g clip-path="url(#clip0_0_243)">
<path d="M31.12 42.9662H28.88C28.123 42.9662 27.484 42.3992 27.394 41.6462L27.155 39.7702C26.678 39.6152 26.218 39.4242 25.781 39.2012L24.287 40.3622C23.681 40.8312 22.828 40.7772 22.302 40.2362L20.727 38.6612C20.19 38.1402 20.136 37.2872 20.605 36.6822L21.766 35.1872C21.542 34.7502 21.351 34.2902 21.197 33.8132L19.317 33.5742C18.567 33.4822 18 32.8432 18 32.0862V29.8462C18 29.0892 18.567 28.4502 19.32 28.3602L21.196 28.1212C21.351 27.6442 21.542 27.1842 21.765 26.7472L20.605 25.2532C20.135 24.6472 20.19 23.7932 20.732 23.2672L22.307 21.6922C22.828 21.1552 23.682 21.1022 24.286 21.5702L25.78 22.7322C26.217 22.5092 26.677 22.3182 27.155 22.1632L27.394 20.2832C27.484 19.5332 28.123 18.9662 28.88 18.9662H31.12C31.877 18.9662 32.516 19.5332 32.606 20.2862L32.845 22.1622C33.323 22.3172 33.783 22.5082 34.22 22.7312L35.714 21.5702C36.321 21.1012 37.173 21.1552 37.699 21.6972L39.274 23.2722C39.811 23.7932 39.865 24.6462 39.396 25.2512L38.235 26.7462C38.459 27.1832 38.65 27.6432 38.804 28.1202L40.684 28.3592C41.433 28.4502 42 29.0892 42 29.8462V32.0862C42 32.8432 41.433 33.4822 40.68 33.5722L38.804 33.8112C38.649 34.2882 38.458 34.7482 38.235 35.1852L39.396 36.6792C39.866 37.2852 39.811 38.1382 39.269 38.6642L37.694 40.2392C37.173 40.7762 36.319 40.8312 35.715 40.3612L34.22 39.2002C33.783 39.4242 33.323 39.6152 32.846 39.7692L32.607 41.6492C32.516 42.3992 31.877 42.9662 31.12 42.9662ZM25.73 38.1062C25.813 38.1062 25.898 38.1272 25.974 38.1692C26.525 38.4772 27.122 38.7252 27.748 38.9052C27.94 38.9602 28.081 39.1242 28.106 39.3222L28.386 41.5222C28.416 41.7732 28.633 41.9662 28.88 41.9662H31.12C31.367 41.9662 31.584 41.7732 31.613 41.5272L31.894 39.3232C31.919 39.1252 32.06 38.9612 32.252 38.9062C32.878 38.7262 33.475 38.4782 34.026 38.1702C34.201 38.0722 34.419 38.0892 34.576 38.2122L36.326 39.5722C36.527 39.7282 36.809 39.7152 36.981 39.5382L38.566 37.9532C38.747 37.7772 38.761 37.4952 38.605 37.2932L37.245 35.5432C37.122 35.3852 37.105 35.1682 37.203 34.9932C37.511 34.4422 37.759 33.8452 37.939 33.2192C37.994 33.0272 38.158 32.8862 38.356 32.8612L40.556 32.5812C40.807 32.5502 41 32.3332 41 32.0862V29.8462C41 29.5992 40.807 29.3822 40.561 29.3532L38.357 29.0722C38.159 29.0472 37.995 28.9062 37.94 28.7142C37.76 28.0882 37.512 27.4912 37.204 26.9402C37.106 26.7652 37.122 26.5482 37.246 26.3902L38.606 24.6402C38.763 24.4382 38.749 24.1562 38.573 23.9862L36.988 22.4012C36.813 22.2192 36.53 22.2052 36.328 22.3622L34.578 23.7222C34.419 23.8452 34.202 23.8622 34.027 23.7642C33.478 23.4562 32.881 23.2092 32.253 23.0282C32.061 22.9732 31.92 22.8092 31.895 22.6112L31.615 20.4112C31.584 20.1592 31.367 19.9662 31.12 19.9662H28.88C28.633 19.9662 28.416 20.1592 28.387 20.4052L28.106 22.6092C28.081 22.8072 27.94 22.9712 27.748 23.0272C27.12 23.2072 26.523 23.4552 25.974 23.7622C25.799 23.8612 25.582 23.8432 25.423 23.7212L23.673 22.3612C23.471 22.2042 23.19 22.2182 23.019 22.3942L21.434 23.9802C21.253 24.1562 21.239 24.4382 21.395 24.6402L22.755 26.3902C22.878 26.5482 22.895 26.7652 22.797 26.9402C22.488 27.4912 22.241 28.0882 22.061 28.7142C22.006 28.9062 21.842 29.0472 21.644 29.0722L19.444 29.3522C19.193 29.3822 19 29.5992 19 29.8462V32.0862C19 32.3332 19.193 32.5502 19.439 32.5792L21.643 32.8602C21.841 32.8852 22.005 33.0262 22.06 33.2182C22.24 33.8442 22.488 34.4412 22.796 34.9922C22.894 35.1672 22.878 35.3842 22.754 35.5422L21.394 37.2922C21.237 37.4942 21.251 37.7762 21.427 37.9462L23.012 39.5312C23.187 39.7122 23.468 39.7262 23.672 39.5702L25.422 38.2102C25.513 38.1422 25.621 38.1062 25.73 38.1062Z" fill="black"/>
<path d="M30 35.9662C27.243 35.9662 25 33.7232 25 30.9662C25 28.2092 27.243 25.9662 30 25.9662C32.757 25.9662 35 28.2092 35 30.9662C35 33.7232 32.757 35.9662 30 35.9662ZM30 26.9662C27.794 26.9662 26 28.7602 26 30.9662C26 33.1722 27.794 34.9662 30 34.9662C32.206 34.9662 34 33.1722 34 30.9662C34 28.7602 32.206 26.9662 30 26.9662Z" fill="black"/>
</g>
<defs>
<clipPath id="clip0_0_243">
<rect width="24" height="24" fill="white" transform="translate(18 18.9662)"/>
</clipPath>
</defs>
</svg>
