<svg width="60" height="61" viewBox="0 0 60 61" fill="none" xmlns="http://www.w3.org/2000/svg">
<rect y="0.966248" width="60" height="60" rx="30" fill="white"/>
<g clip-path="url(#clip0_0_252)">
<path d="M30 38.9662C29.724 38.9662 29.5 38.7423 29.5 38.4662C29.5 35.5702 31.71 34.0182 33.374 33.1022C36 31.6542 37.412 28.6772 36.888 25.6932C36.395 22.8812 34.086 20.5722 31.273 20.0792C29.252 19.7232 27.266 20.2142 25.681 21.4572C24.118 22.6852 23.146 24.5232 23.016 26.4992C22.997 26.7752 22.758 26.9782 22.484 26.9652C22.208 26.9472 22 26.7092 22.018 26.4332C22.167 24.1742 23.277 22.0732 25.064 20.6702C26.874 19.2492 29.138 18.6882 31.446 19.0932C34.665 19.6582 37.308 22.3012 37.873 25.5202C38.471 28.9252 36.856 32.3242 33.856 33.9772C31.535 35.2562 30.5 36.6412 30.5 38.4662C30.5 38.7423 30.276 38.9662 30 38.9662ZM29 41.9662C29 42.5182 29.448 42.9663 30 42.9663C30.552 42.9663 31 42.5182 31 41.9662C31 41.4142 30.552 40.9662 30 40.9662C29.448 40.9662 29 41.4142 29 41.9662Z" fill="black"/>
</g>
<defs>
<clipPath id="clip0_0_252">
<rect width="24" height="24" fill="white" transform="translate(18 18.9662)"/>
</clipPath>
</defs>
</svg>
