<svg width="24" height="25" viewBox="0 0 24 25" fill="none" xmlns="http://www.w3.org/2000/svg">
<path d="M19.5 2.96625H18V1.46625C18 1.19025 17.776 0.966248 17.5 0.966248C17.224 0.966248 17 1.19025 17 1.46625V2.96625H7V1.46625C7 1.19025 6.776 0.966248 6.5 0.966248C6.224 0.966248 6 1.19025 6 1.46625V2.96625H4.5C2.019 2.96625 0 4.98525 0 7.46625V20.4662C0 22.9472 2.019 24.9662 4.5 24.9662H19.5C21.981 24.9662 24 22.9472 24 20.4662V7.46625C24 4.98525 21.981 2.96625 19.5 2.96625ZM4.5 3.96625H19.5C21.43 3.96625 23 5.53625 23 7.46625V8.96625H1V7.46625C1 5.53625 2.57 3.96625 4.5 3.96625ZM19.5 23.9662H4.5C2.57 23.9662 1 22.3962 1 20.4662V9.96625H23V20.4662C23 22.3962 21.43 23.9662 19.5 23.9662ZM19 14.4662C19 14.7422 18.776 14.9662 18.5 14.9662H5.5C5.224 14.9662 5 14.7422 5 14.4662C5 14.1902 5.224 13.9662 5.5 13.9662H18.5C18.776 13.9662 19 14.1902 19 14.4662ZM12 19.4662C12 19.7422 11.776 19.9662 11.5 19.9662H5.5C5.224 19.9662 5 19.7422 5 19.4662C5 19.1902 5.224 18.9662 5.5 18.9662H11.5C11.776 18.9662 12 19.1902 12 19.4662Z" fill="black"/>
</svg>
