<svg width="44" height="45" viewBox="0 0 44 45" fill="none" xmlns="http://www.w3.org/2000/svg">
<circle cx="22" cy="22.9325" r="22" fill="#E7EEE9"/>
<g clip-path="url(#clip0_0_479)">
<path d="M21.737 34.9325C21.492 34.9325 21.243 34.8785 21.002 34.7675C20.216 34.4045 19.834 33.5695 20.072 32.7375L21.827 26.9325H16.501C15.702 26.9325 14.97 26.5645 14.494 25.9225C14.018 25.2805 13.877 24.4735 14.108 23.7085L17.13 12.7205C17.455 11.6465 18.417 10.9325 19.526 10.9325H23.899C24.587 10.9325 25.232 11.2705 25.624 11.8355C26.016 12.4005 26.106 13.1235 25.865 13.7675L23.705 19.9325H27.5C28.442 19.9325 29.268 20.4295 29.709 21.2625C30.15 22.0955 30.098 23.0565 29.569 23.8365L23.159 34.1485C22.82 34.6575 22.291 34.9325 21.737 34.9325ZM19.527 11.9325C18.861 11.9325 18.284 12.3605 18.091 12.9985L15.069 23.9865C14.927 24.4575 15.011 24.9415 15.297 25.3265C15.583 25.7115 16.022 25.9325 16.502 25.9325H22.501C22.659 25.9325 22.808 26.0075 22.902 26.1345C22.996 26.2615 23.025 26.4255 22.979 26.5765L21.032 33.0185C20.91 33.4465 21.153 33.7345 21.423 33.8585C21.692 33.9825 22.069 33.9825 22.319 33.6055L28.731 23.2905C29.059 22.8065 29.091 22.2295 28.826 21.7295C28.561 21.2295 28.066 20.9315 27.5 20.9315H23C22.838 20.9315 22.686 20.8525 22.592 20.7205C22.498 20.5885 22.474 20.4195 22.528 20.2655L24.925 13.4255C25.057 13.0725 25.011 12.7045 24.802 12.4045C24.594 12.1035 24.264 11.9315 23.899 11.9315H19.526L19.527 11.9325Z" fill="#5D7370"/>
</g>
<defs>
<clipPath id="clip0_0_479">
<rect width="24" height="24" fill="white" transform="translate(10 10.9325)"/>
</clipPath>
</defs>
</svg>
