<svg width="70" height="70" viewBox="0 0 70 70" fill="none" xmlns="http://www.w3.org/2000/svg">
<rect width="70" height="70" rx="35" fill="white"/>
<path fill-rule="evenodd" clip-rule="evenodd" d="M45.6694 25.1475C47.4803 25.1475 48.9499 26.6155 48.9499 28.428C48.9499 30.239 47.4803 31.7071 45.6694 31.7071C43.8584 31.7071 42.3889 30.239 42.3889 28.428C42.3889 26.6155 43.8584 25.1475 45.6694 25.1475Z" fill="#FF1212" stroke="#FF1212" stroke-width="2.25" strokelinecap="round" stroke-linejoin="round"/>
<path d="M48.3704 37.0877C48.2318 39.9144 47.2058 42.7017 45.3029 44.9519C42.6309 48.1113 38.8805 49.6787 35.1329 49.667C33.821 49.6611 27.975 49.6655 24.5237 49.667C23.4993 49.667 22.8922 48.5243 23.4628 47.6706C23.7824 47.1935 24.191 46.6112 24.512 46.1573C24.8345 45.7035 24.8637 45.1067 24.585 44.625C24.0947 43.7742 23.365 42.4827 23.1753 42.0129C20.9104 37.1154 21.7846 31.1279 25.8254 27.0871C29.2358 23.6766 34.053 22.5209 38.4179 23.6168" stroke="#201F23" stroke-width="1.5" strokelinecap="round" stroke-linejoin="round"/>
<path d="M39.6656 36.8456V36.9503M40.0898 36.8681C40.0898 37.1039 39.8987 37.2948 39.6629 37.2948C39.4273 37.2948 39.2363 37.1039 39.2363 36.8681C39.2363 36.6324 39.4273 36.4413 39.6629 36.4413C39.8987 36.4413 40.0898 36.6324 40.0898 36.8681Z" stroke="#201F23" stroke-width="1.5" strokelinecap="round" stroke-linejoin="round"/>
<path d="M31.2429 36.8456V36.9503M31.6672 36.8681C31.6672 37.1039 31.476 37.2948 31.2403 37.2948C31.0046 37.2948 30.8137 37.1039 30.8137 36.8681C30.8137 36.6324 31.0046 36.4413 31.2403 36.4413C31.476 36.4413 31.6672 36.6324 31.6672 36.8681Z" stroke="#201F23" stroke-width="1.5" strokelinecap="round" stroke-linejoin="round"/>
</svg>
