<svg width="24" height="21" viewBox="0 0 24 21" fill="none" xmlns="http://www.w3.org/2000/svg">
<path d="M19.5 20.4325H4.5C2.019 20.4325 0 18.4135 0 15.9325V4.9325C0 2.4515 2.019 0.432495 4.5 0.432495H19.5C21.981 0.432495 24 2.4515 24 4.9325V15.9325C24 18.4135 21.981 20.4325 19.5 20.4325ZM4.5 1.4325C2.57 1.4325 1 3.0025 1 4.9325V15.9325C1 17.8625 2.57 19.4325 4.5 19.4325H19.5C21.43 19.4325 23 17.8625 23 15.9325V4.9325C23 3.0025 21.43 1.4325 19.5 1.4325H4.5ZM18.5 11.4325H13.5C12.673 11.4325 12 10.7595 12 9.9325V6.9325C12 6.1055 12.673 5.4325 13.5 5.4325H18.5C19.327 5.4325 20 6.1055 20 6.9325V9.9325C20 10.7595 19.327 11.4325 18.5 11.4325ZM13.5 6.4325C13.224 6.4325 13 6.6565 13 6.9325V9.9325C13 10.2085 13.224 10.4325 13.5 10.4325H18.5C18.776 10.4325 19 10.2085 19 9.9325V6.9325C19 6.6565 18.776 6.4325 18.5 6.4325H13.5ZM10 10.9325C10 10.6565 9.776 10.4325 9.5 10.4325H4.5C4.224 10.4325 4 10.6565 4 10.9325C4 11.2085 4.224 11.4325 4.5 11.4325H9.5C9.776 11.4325 10 11.2085 10 10.9325ZM20 14.9325C20 14.6565 19.776 14.4325 19.5 14.4325H4.5C4.224 14.4325 4 14.6565 4 14.9325C4 15.2085 4.224 15.4325 4.5 15.4325H19.5C19.776 15.4325 20 15.2085 20 14.9325Z" fill="black"/>
</svg>
