<svg width="214" height="19" viewBox="0 0 214 19" fill="none" xmlns="http://www.w3.org/2000/svg">
<path d="M7.12 14.9325L2.58 3.95249V14.9325H0.56V0.572494H3.26L8.08 12.2325L12.88 0.572494H15.6V14.9325H13.56V3.93249L9 14.9325H7.12ZM17.7845 9.63249C17.7845 6.41249 19.6445 4.13249 22.5645 4.13249C24.1045 4.13249 25.2845 4.85249 26.0245 6.19249V4.33249H27.9045V14.9325H26.0245V13.0325C25.2645 14.3725 23.9845 15.1325 22.4845 15.1325C19.6245 15.1325 17.7845 12.8125 17.7845 9.63249ZM19.8845 9.63249C19.8845 11.9925 21.1245 13.3325 22.8845 13.3325C24.6045 13.3325 25.8845 11.9325 25.8845 9.59249C25.8845 7.21249 24.5645 5.91249 22.8845 5.91249C21.1245 5.91249 19.8845 7.23249 19.8845 9.63249ZM33.0553 1.87249C33.0553 2.63249 32.4553 3.21249 31.5953 3.21249C30.7353 3.21249 30.1153 2.63249 30.1153 1.87249C30.1153 1.09249 30.7353 0.532495 31.5953 0.532495C32.4553 0.532495 33.0553 1.09249 33.0553 1.87249ZM32.6153 14.9325H30.5953V4.33249H32.6153V14.9325ZM37.4395 8.95249V14.9325H35.4195V4.33249H37.2995V6.09249C38.0195 4.91249 39.2195 4.13249 40.6795 4.13249C42.8595 4.13249 44.2995 5.53249 44.2995 8.07249V14.9325H42.2795V8.75249C42.2795 6.93249 41.4795 5.91249 39.9795 5.91249C38.5995 5.91249 37.4395 7.07249 37.4395 8.95249ZM52.923 12.9725V14.7525C52.303 15.0325 51.763 15.1325 51.123 15.1325C49.163 15.1325 47.803 14.0725 47.803 11.7325V6.05249H45.463V4.33249H47.803V1.19249H49.823V4.33249H53.023V6.05249H49.823V11.2725C49.823 12.7325 50.523 13.2525 51.603 13.2525C52.083 13.2525 52.503 13.1725 52.923 12.9725ZM59.0178 15.1325C55.9578 15.1325 53.8978 12.9125 53.8978 9.57249C53.8978 6.43249 56.0378 4.13249 58.9578 4.13249C62.1178 4.13249 64.2178 6.69249 63.8578 10.1325H55.9578C56.1178 12.2925 57.1978 13.5525 58.9778 13.5525C60.4778 13.5525 61.5178 12.7325 61.8578 11.3525H63.8578C63.3378 13.7125 61.5178 15.1325 59.0178 15.1325ZM58.9178 5.65249C57.2978 5.65249 56.1978 6.81249 55.9778 8.79249H61.7178C61.6178 6.83249 60.5578 5.65249 58.9178 5.65249ZM68.0255 8.95249V14.9325H66.0055V4.33249H67.8855V6.09249C68.6055 4.91249 69.8055 4.13249 71.2655 4.13249C73.4455 4.13249 74.8855 5.53249 74.8855 8.07249V14.9325H72.8655V8.75249C72.8655 6.93249 72.0655 5.91249 70.5655 5.91249C69.1855 5.91249 68.0255 7.07249 68.0255 8.95249ZM76.808 9.63249C76.808 6.41249 78.668 4.13249 81.588 4.13249C83.128 4.13249 84.308 4.85249 85.048 6.19249V4.33249H86.928V14.9325H85.048V13.0325C84.288 14.3725 83.008 15.1325 81.508 15.1325C78.648 15.1325 76.808 12.8125 76.808 9.63249ZM78.908 9.63249C78.908 11.9925 80.148 13.3325 81.908 13.3325C83.628 13.3325 84.908 11.9325 84.908 9.59249C84.908 7.21249 83.588 5.91249 81.908 5.91249C80.148 5.91249 78.908 7.23249 78.908 9.63249ZM91.6388 8.95249V14.9325H89.6188V4.33249H91.4988V6.09249C92.2188 4.91249 93.4188 4.13249 94.8788 4.13249C97.0588 4.13249 98.4987 5.53249 98.4987 8.07249V14.9325H96.4788V8.75249C96.4788 6.93249 95.6788 5.91249 94.1788 5.91249C92.7988 5.91249 91.6388 7.07249 91.6388 8.95249ZM105.361 15.1525C102.461 15.1525 100.421 12.8725 100.421 9.63249C100.421 6.43249 102.501 4.13249 105.361 4.13249C107.981 4.13249 109.881 5.87249 110.261 8.63249H108.141C107.921 6.93249 106.861 5.91249 105.381 5.91249C103.641 5.91249 102.501 7.3925 102.501 9.63249C102.501 11.8925 103.641 13.3525 105.381 13.3525C106.881 13.3525 107.921 12.3525 108.161 10.6325H110.261C109.901 13.4325 108.021 15.1525 105.361 15.1525ZM116.557 15.1325C113.497 15.1325 111.437 12.9125 111.437 9.57249C111.437 6.43249 113.577 4.13249 116.497 4.13249C119.657 4.13249 121.757 6.69249 121.397 10.1325H113.497C113.657 12.2925 114.737 13.5525 116.517 13.5525C118.017 13.5525 119.057 12.7325 119.397 11.3525H121.397C120.877 13.7125 119.057 15.1325 116.557 15.1325ZM116.457 5.65249C114.837 5.65249 113.737 6.81249 113.517 8.79249H119.257C119.157 6.83249 118.097 5.65249 116.457 5.65249ZM130.084 14.9325H127.884V0.572494H133.244C136.544 0.572494 138.524 2.19249 138.524 5.05249C138.524 7.11249 137.224 8.69249 135.044 9.21249L138.944 14.9325H136.304L132.724 9.53249H130.084V14.9325ZM130.084 2.41249V7.69249H133.104C135.144 7.69249 136.304 6.7925 136.304 5.05249C136.304 3.33249 135.144 2.41249 133.104 2.41249H130.084ZM144.76 15.1325C141.7 15.1325 139.64 12.9125 139.64 9.57249C139.64 6.43249 141.78 4.13249 144.7 4.13249C147.86 4.13249 149.96 6.69249 149.6 10.1325H141.7C141.86 12.2925 142.94 13.5525 144.72 13.5525C146.22 13.5525 147.26 12.7325 147.6 11.3525H149.6C149.08 13.7125 147.26 15.1325 144.76 15.1325ZM144.66 5.65249C143.04 5.65249 141.94 6.81249 141.72 8.79249H147.46C147.36 6.83249 146.3 5.65249 144.66 5.65249ZM150.792 9.63249C150.792 6.43249 152.632 4.13249 155.492 4.13249C157.012 4.13249 158.292 4.91249 159.032 6.29249V4.33249H160.912V18.7925H158.892V13.1325C158.132 14.4125 156.912 15.1325 155.492 15.1325C152.632 15.1325 150.792 12.8325 150.792 9.63249ZM152.892 9.63249C152.892 12.0125 154.132 13.3325 155.892 13.3325C157.612 13.3325 158.892 11.9725 158.892 9.63249C158.892 7.2525 157.592 5.91249 155.892 5.91249C154.132 5.91249 152.892 7.2525 152.892 9.63249ZM170.34 10.5725V4.33249H172.36V14.9325H170.48V13.2525C169.92 14.3525 168.68 15.1325 167.24 15.1325C165.1 15.1325 163.62 13.8725 163.62 11.1525V4.33249H165.64V10.7525C165.64 12.5925 166.56 13.3525 167.88 13.3525C169.24 13.3525 170.34 12.2325 170.34 10.5725ZM179.526 15.1325C176.466 15.1325 174.406 12.9125 174.406 9.57249C174.406 6.43249 176.546 4.13249 179.466 4.13249C182.626 4.13249 184.726 6.69249 184.366 10.1325H176.466C176.626 12.2925 177.706 13.5525 179.486 13.5525C180.986 13.5525 182.026 12.7325 182.366 11.3525H184.366C183.846 13.7125 182.026 15.1325 179.526 15.1325ZM179.426 5.65249C177.806 5.65249 176.706 6.81249 176.486 8.79249H182.226C182.126 6.83249 181.066 5.65249 179.426 5.65249ZM194.913 11.7725C194.913 13.8525 193.293 15.1325 190.473 15.1325C187.673 15.1325 186.013 13.7525 185.813 11.4725H187.753C187.833 12.7925 188.893 13.6125 190.513 13.6125C191.933 13.6125 192.873 13.1125 192.873 12.1125C192.873 11.2325 192.333 10.8525 191.013 10.5925L189.293 10.2725C187.333 9.8925 186.233 8.89249 186.233 7.29249C186.233 5.43249 187.853 4.13249 190.313 4.13249C192.853 4.13249 194.573 5.49249 194.753 7.6725H192.813C192.693 6.39249 191.753 5.65249 190.333 5.65249C189.053 5.65249 188.193 6.19249 188.193 7.11249C188.193 7.97249 188.733 8.37249 190.013 8.61249L191.813 8.95249C193.913 9.3325 194.913 10.2525 194.913 11.7725ZM202.962 12.9725V14.7525C202.342 15.0325 201.802 15.1325 201.162 15.1325C199.202 15.1325 197.842 14.0725 197.842 11.7325V6.05249H195.502V4.33249H197.842V1.19249H199.862V4.33249H203.062V6.05249H199.862V11.2725C199.862 12.7325 200.562 13.2525 201.642 13.2525C202.122 13.2525 202.542 13.1725 202.962 12.9725ZM213.351 11.7725C213.351 13.8525 211.731 15.1325 208.911 15.1325C206.111 15.1325 204.451 13.7525 204.251 11.4725H206.191C206.271 12.7925 207.331 13.6125 208.951 13.6125C210.371 13.6125 211.311 13.1125 211.311 12.1125C211.311 11.2325 210.771 10.8525 209.451 10.5925L207.731 10.2725C205.771 9.8925 204.671 8.89249 204.671 7.29249C204.671 5.43249 206.291 4.13249 208.751 4.13249C211.291 4.13249 213.011 5.49249 213.191 7.6725H211.251C211.131 6.39249 210.191 5.65249 208.771 5.65249C207.491 5.65249 206.631 6.19249 206.631 7.11249C206.631 7.97249 207.171 8.37249 208.451 8.61249L210.251 8.95249C212.351 9.3325 213.351 10.2525 213.351 11.7725Z" fill="#201F23"/>
</svg>
