<svg width="56" height="56" viewBox="0 0 56 56" fill="none" xmlns="http://www.w3.org/2000/svg">
<circle cx="28" cy="28" r="28" fill="#417398"/>
<g clip-path="url(#clip0_18_3)">
<path d="M39.8535 39.1465L32.551 31.844C34.0678 30.1599 35 27.9395 35 25.5C35 20.2617 30.7383 16 25.5 16C20.2617 16 16 20.2617 16 25.5C16 30.7383 20.2617 35 25.5 35C27.9395 35 30.1599 34.0678 31.844 32.551L39.1465 39.8535C39.2441 39.9512 39.3721 40 39.5 40C39.628 40 39.7559 39.9512 39.8536 39.8535C40.0488 39.6582 40.0488 39.3418 39.8535 39.1465ZM25.5 34C20.8135 34 17 30.187 17 25.5C17 20.813 20.8135 17 25.5 17C30.1865 17 34 20.813 34 25.5C34 30.187 30.1865 34 25.5 34Z" fill="white"/>
</g>
<defs>
<clipPath id="clip0_18_3">
<rect width="24" height="24" fill="white" transform="translate(16 16)"/>
</clipPath>
</defs>
</svg>
