<svg width="53" height="13" viewBox="0 0 53 13" fill="none" xmlns="http://www.w3.org/2000/svg">
<path opacity="0.8" d="M9.76269 8.57249C9.76269 10.5725 8.16269 12.0925 5.37869 12.0925C2.61069 12.0925 0.930687 10.5725 0.786687 8.28449H2.57869C2.65869 9.74049 3.58669 10.6845 5.34669 10.6845C6.80269 10.6845 7.89069 9.9965 7.89069 8.81249C7.89069 7.85249 7.26669 7.37249 5.93869 7.0845L4.27469 6.76449C2.65869 6.44449 1.18669 5.62849 1.18669 3.67649C1.18669 1.74049 2.88269 0.284494 5.26669 0.284494C7.65069 0.284494 9.45869 1.74049 9.60269 4.02849H7.81069C7.71469 2.65249 6.72269 1.69249 5.28269 1.69249C3.79469 1.69249 2.97869 2.57249 2.97869 3.5645C2.97869 4.65249 3.92269 5.03649 4.99469 5.26049L6.69069 5.59649C8.65869 5.99649 9.76269 6.8605 9.76269 8.57249ZM15.6402 12.0925C13.1922 12.0925 11.5442 10.3165 11.5442 7.6445C11.5442 5.13249 13.2562 3.29249 15.5922 3.29249C18.1202 3.29249 19.8002 5.34049 19.5122 8.09249H13.1922C13.3202 9.8205 14.1842 10.8285 15.6082 10.8285C16.8082 10.8285 17.6402 10.1725 17.9122 9.0685H19.5122C19.0962 10.9565 17.6402 12.0925 15.6402 12.0925ZM15.5602 4.50849C14.2642 4.50849 13.3842 5.43649 13.2082 7.02049H17.8002C17.7202 5.45249 16.8722 4.50849 15.5602 4.50849ZM25.0421 12.0925C22.5941 12.0925 20.9461 10.3165 20.9461 7.6445C20.9461 5.13249 22.6581 3.29249 24.9941 3.29249C27.5221 3.29249 29.2021 5.34049 28.9141 8.09249H22.5941C22.7221 9.8205 23.5861 10.8285 25.0101 10.8285C26.2101 10.8285 27.0421 10.1725 27.3141 9.0685H28.9141C28.4981 10.9565 27.0421 12.0925 25.0421 12.0925ZM24.9621 4.50849C23.6661 4.50849 22.7861 5.43649 22.6101 7.02049H27.2021C27.1221 5.45249 26.2741 4.50849 24.9621 4.50849ZM42.9679 11.9325L41.9279 9.0845H36.9679L35.9119 11.9325H34.1359L38.5359 0.444494H40.4719L44.8399 11.9325H42.9679ZM39.4639 2.36449L37.4959 7.66049H41.3999L39.4639 2.36449ZM48.4073 11.9325H46.7753V0.444494H48.4073V11.9325ZM52.7623 11.9325H51.1303V0.444494H52.7623V11.9325Z" fill="#596269"/>
</svg>
