<svg width="24" height="25" viewBox="0 0 24 25" fill="none" xmlns="http://www.w3.org/2000/svg">
<path d="M13.12 24.9662H10.88C10.123 24.9662 9.484 24.3992 9.394 23.6462L9.155 21.7702C8.678 21.6152 8.218 21.4242 7.781 21.2012L6.287 22.3622C5.681 22.8312 4.828 22.7772 4.302 22.2362L2.727 20.6612C2.19 20.1402 2.136 19.2872 2.605 18.6822L3.766 17.1872C3.542 16.7502 3.351 16.2902 3.197 15.8132L1.317 15.5742C0.567 15.4822 0 14.8432 0 14.0862V11.8462C0 11.0892 0.567 10.4502 1.32 10.3602L3.196 10.1212C3.351 9.64425 3.542 9.18425 3.765 8.74725L2.605 7.25325C2.135 6.64725 2.19 5.79325 2.732 5.26725L4.307 3.69225C4.828 3.15525 5.682 3.10225 6.286 3.57025L7.78 4.73225C8.217 4.50925 8.677 4.31825 9.155 4.16325L9.394 2.28325C9.484 1.53325 10.123 0.966248 10.88 0.966248H13.12C13.877 0.966248 14.516 1.53325 14.606 2.28625L14.845 4.16225C15.323 4.31725 15.783 4.50825 16.22 4.73125L17.714 3.57025C18.321 3.10125 19.173 3.15525 19.699 3.69725L21.274 5.27225C21.811 5.79325 21.865 6.64625 21.396 7.25125L20.235 8.74625C20.459 9.18325 20.65 9.64325 20.804 10.1202L22.684 10.3592C23.433 10.4502 24 11.0892 24 11.8462V14.0862C24 14.8432 23.433 15.4822 22.68 15.5722L20.804 15.8112C20.649 16.2882 20.458 16.7482 20.235 17.1852L21.396 18.6792C21.866 19.2852 21.811 20.1382 21.269 20.6642L19.694 22.2392C19.173 22.7762 18.319 22.8312 17.715 22.3612L16.22 21.2002C15.783 21.4242 15.323 21.6152 14.846 21.7692L14.607 23.6492C14.516 24.3992 13.877 24.9662 13.12 24.9662ZM7.73 20.1062C7.813 20.1062 7.898 20.1272 7.974 20.1692C8.525 20.4772 9.122 20.7252 9.748 20.9052C9.94 20.9602 10.081 21.1242 10.106 21.3222L10.386 23.5222C10.416 23.7732 10.633 23.9662 10.88 23.9662H13.12C13.367 23.9662 13.584 23.7732 13.613 23.5272L13.894 21.3232C13.919 21.1252 14.06 20.9612 14.252 20.9062C14.878 20.7262 15.475 20.4782 16.026 20.1702C16.201 20.0722 16.419 20.0892 16.576 20.2122L18.326 21.5722C18.527 21.7282 18.809 21.7152 18.981 21.5382L20.566 19.9532C20.747 19.7772 20.761 19.4952 20.605 19.2932L19.245 17.5432C19.122 17.3852 19.105 17.1682 19.203 16.9932C19.511 16.4422 19.759 15.8452 19.939 15.2192C19.994 15.0272 20.158 14.8862 20.356 14.8612L22.556 14.5812C22.807 14.5502 23 14.3332 23 14.0862V11.8462C23 11.5992 22.807 11.3822 22.561 11.3532L20.357 11.0722C20.159 11.0472 19.995 10.9062 19.94 10.7142C19.76 10.0882 19.512 9.49125 19.204 8.94025C19.106 8.76525 19.122 8.54825 19.246 8.39025L20.606 6.64025C20.763 6.43825 20.749 6.15625 20.573 5.98625L18.988 4.40125C18.813 4.21925 18.53 4.20525 18.328 4.36225L16.578 5.72225C16.419 5.84525 16.202 5.86225 16.027 5.76425C15.478 5.45625 14.881 5.20925 14.253 5.02825C14.061 4.97325 13.92 4.80925 13.895 4.61125L13.615 2.41125C13.584 2.15925 13.367 1.96625 13.12 1.96625H10.88C10.633 1.96625 10.416 2.15925 10.387 2.40525L10.106 4.60925C10.081 4.80725 9.94 4.97125 9.748 5.02725C9.12 5.20725 8.523 5.45525 7.974 5.76225C7.799 5.86125 7.582 5.84325 7.423 5.72125L5.673 4.36125C5.471 4.20425 5.19 4.21825 5.019 4.39425L3.434 5.98025C3.253 6.15625 3.239 6.43825 3.395 6.64025L4.755 8.39025C4.878 8.54825 4.895 8.76525 4.797 8.94025C4.488 9.49125 4.241 10.0882 4.061 10.7142C4.006 10.9062 3.842 11.0472 3.644 11.0722L1.444 11.3522C1.193 11.3822 1 11.5992 1 11.8462V14.0862C1 14.3332 1.193 14.5502 1.439 14.5792L3.643 14.8602C3.841 14.8852 4.005 15.0262 4.06 15.2182C4.24 15.8442 4.488 16.4412 4.796 16.9922C4.894 17.1672 4.878 17.3842 4.754 17.5422L3.394 19.2922C3.237 19.4942 3.251 19.7762 3.427 19.9462L5.012 21.5312C5.187 21.7122 5.468 21.7262 5.672 21.5702L7.422 20.2102C7.513 20.1422 7.621 20.1062 7.73 20.1062Z" fill="black"/>
</svg>
