<svg width="16" height="25" viewBox="0 0 16 25" fill="none" xmlns="http://www.w3.org/2000/svg">
<path d="M7.99999 20.9662C7.72399 20.9662 7.49999 20.7423 7.49999 20.4662C7.49999 17.5702 9.70999 16.0182 11.374 15.1022C14 13.6542 15.412 10.6772 14.888 7.69325C14.395 4.88125 12.086 2.57225 9.27299 2.07925C7.25199 1.72325 5.26599 2.21425 3.68099 3.45725C2.11799 4.68525 1.14599 6.52325 1.01599 8.49925C0.996992 8.77525 0.757992 8.97825 0.483992 8.96525C0.207992 8.94725 -7.84732e-06 8.70925 0.0179922 8.43325C0.166992 6.17425 1.27699 4.07325 3.06399 2.67025C4.87399 1.24925 7.13799 0.688247 9.44599 1.09325C12.665 1.65825 15.308 4.30125 15.873 7.52025C16.471 10.9252 14.856 14.3242 11.856 15.9772C9.53499 17.2562 8.49999 18.6412 8.49999 20.4662C8.49999 20.7423 8.27599 20.9662 7.99999 20.9662ZM6.99999 23.9662C6.99999 24.5182 7.44799 24.9663 7.99999 24.9663C8.55199 24.9663 8.99999 24.5182 8.99999 23.9662C8.99999 23.4142 8.55199 22.9662 7.99999 22.9662C7.44799 22.9662 6.99999 23.4142 6.99999 23.9662Z" fill="black"/>
</svg>
