<svg width="15" height="21" viewBox="0 0 15 21" fill="none" xmlns="http://www.w3.org/2000/svg">
<path d="M7.5 9.96625C9.981 9.96625 12 7.94725 12 5.46625C12 2.98525 9.981 0.966248 7.5 0.966248C5.019 0.966248 3 2.98525 3 5.46625C3 7.94725 5.019 9.96625 7.5 9.96625ZM7.5 1.96625C9.43 1.96625 11 3.53625 11 5.46625C11 7.39625 9.43 8.96625 7.5 8.96625C5.57 8.96625 4 7.39625 4 5.46625C4 3.53625 5.57 1.96625 7.5 1.96625ZM15 19.4662V20.4662C15 20.7422 14.776 20.9662 14.5 20.9662C14.224 20.9662 14 20.7422 14 20.4662V19.4662C14 15.8822 11.084 12.9662 7.5 12.9662C3.916 12.9662 1 15.8822 1 19.4662V20.4662C1 20.7422 0.776 20.9662 0.5 20.9662C0.224 20.9662 0 20.7422 0 20.4662V19.4662C0 15.3302 3.364 11.9662 7.5 11.9662C11.636 11.9662 15 15.3302 15 19.4662Z" fill="black"/>
</svg>
