<svg width="359" height="78" viewBox="0 0 359 78" fill="none" xmlns="http://www.w3.org/2000/svg">
<path d="M6.016 34H2.496V11.024H6.016V20.624H17.664V11.024H21.184V34H17.664V23.696H6.016V34ZM32.9035 34.32C28.0075 34.32 24.7115 30.768 24.7115 25.424C24.7115 20.4 28.1355 16.72 32.8075 16.72C37.8635 16.72 41.2235 20.816 40.6475 26.32H28.0075C28.2635 29.776 29.9915 31.792 32.8395 31.792C35.2395 31.792 36.9035 30.48 37.4475 28.272H40.6475C39.8155 32.048 36.9035 34.32 32.9035 34.32ZM32.7435 19.152C30.1515 19.152 28.3915 21.008 28.0395 24.176H37.2235C37.0635 21.04 35.3675 19.152 32.7435 19.152ZM47.3478 34H44.0838V11.024H47.3478V34ZM55.0978 34H51.8338V11.024H55.0978V34ZM66.6878 34.32C61.8878 34.32 58.3678 30.544 58.3678 25.52C58.3678 20.496 61.8878 16.72 66.6878 16.72C71.4878 16.72 75.0078 20.496 75.0078 25.52C75.0078 30.544 71.4878 34.32 66.6878 34.32ZM66.6878 31.472C69.4718 31.472 71.6798 29.232 71.6798 25.52C71.6798 21.808 69.4718 19.6 66.6878 19.6C63.9038 19.6 61.7278 21.808 61.7278 25.52C61.7278 29.232 63.9038 31.472 66.6878 31.472ZM82.2178 32.624C82.2178 35.664 79.8177 38.032 76.2978 38.096V36.272C78.3778 36.208 79.7858 35.088 79.9778 33.52C79.6898 33.616 79.4978 33.648 79.2738 33.648C78.0578 33.648 77.1618 32.656 77.1618 31.472C77.1618 30.096 78.1858 29.2 79.4978 29.2C81.2578 29.2 82.2178 30.48 82.2178 32.624ZM107.394 11.024V26.096C107.394 31.28 104.354 34.48 99.2338 34.48C94.2098 34.48 91.2018 31.312 91.0738 26.64H94.6258C94.7538 29.552 96.2898 31.312 99.2338 31.312C102.21 31.312 103.842 29.584 103.842 26.256V11.024H107.394ZM119.063 34.32C114.263 34.32 110.743 30.544 110.743 25.52C110.743 20.496 114.263 16.72 119.063 16.72C123.863 16.72 127.383 20.496 127.383 25.52C127.383 30.544 123.863 34.32 119.063 34.32ZM119.063 31.472C121.847 31.472 124.055 29.232 124.055 25.52C124.055 21.808 121.847 19.6 119.063 19.6C116.279 19.6 114.103 21.808 114.103 25.52C114.103 29.232 116.279 31.472 119.063 31.472ZM133.91 24.432V34H130.678V11.024H133.91V19.76C135.03 17.936 136.758 16.72 139.094 16.72C142.582 16.72 144.885 18.96 144.885 23.024V34H141.654V24.112C141.654 21.2 140.374 19.568 137.974 19.568C135.766 19.568 133.91 21.424 133.91 24.432ZM152.41 24.432V34H149.178V17.04H152.186V19.856C153.338 17.968 155.258 16.72 157.594 16.72C161.082 16.72 163.385 18.96 163.385 23.024V34H160.154V24.112C160.154 21.2 158.874 19.568 156.474 19.568C154.266 19.568 152.41 21.424 152.41 24.432ZM170.942 27.696H168.478L167.71 11.024H171.71L170.942 27.696ZM172.254 31.76C172.254 33.136 171.166 34.16 169.726 34.16C168.286 34.16 167.198 33.136 167.198 31.76C167.198 30.32 168.286 29.296 169.726 29.296C171.198 29.296 172.254 30.32 172.254 31.76Z" fill="#201F23"/>
<path d="M8.22 72L3.02 59.82V72H1.62V57.64H3.56L8.88 70.16L14.24 57.64H16.16V72H14.78V59.82L9.54 72H8.22ZM26.3734 72V70.08C25.7534 71.4 24.4734 72.2 22.8334 72.2C20.6534 72.2 19.2334 70.98 19.2334 69.08C19.2334 67.02 20.8734 65.94 24.0734 65.94C24.7134 65.94 25.1934 65.98 26.2334 66.06V65.18C26.2334 63.42 25.2934 62.38 23.6934 62.38C21.9734 62.38 20.8934 63.44 20.8734 65.16H19.5934C19.6534 62.82 21.2734 61.26 23.6734 61.26C26.1334 61.26 27.5734 62.7 27.5734 65.14V72H26.3734ZM20.5734 69.04C20.5734 70.32 21.5534 71.18 23.0334 71.18C24.9934 71.18 26.2334 69.9 26.2334 67.92V66.98C25.3334 66.9 24.7134 66.88 24.1334 66.88C21.7334 66.88 20.5734 67.58 20.5734 69.04ZM32.5184 65.86V72H31.1184V61.46H32.4184V63.44C33.0984 62.14 34.3784 61.26 35.8984 61.26C38.0984 61.26 39.5184 62.66 39.5184 65.16V72H38.1184V65.64C38.1184 63.62 37.1984 62.48 35.4784 62.48C33.8384 62.48 32.5184 63.9 32.5184 65.86ZM49.5461 72V70.08C48.9261 71.4 47.6461 72.2 46.0061 72.2C43.8261 72.2 42.4061 70.98 42.4061 69.08C42.4061 67.02 44.0461 65.94 47.2461 65.94C47.8861 65.94 48.3661 65.98 49.4061 66.06V65.18C49.4061 63.42 48.4661 62.38 46.8661 62.38C45.1461 62.38 44.0661 63.44 44.0461 65.16H42.7661C42.8261 62.82 44.4461 61.26 46.8461 61.26C49.3061 61.26 50.7461 62.7 50.7461 65.14V72H49.5461ZM43.7461 69.04C43.7461 70.32 44.7261 71.18 46.2061 71.18C48.1661 71.18 49.4061 69.9 49.4061 67.92V66.98C48.5061 66.9 47.8861 66.88 47.3061 66.88C44.9061 66.88 43.7461 67.58 43.7461 69.04ZM58.2711 76.08C55.5911 76.08 53.9111 74.68 53.7911 72.32H55.1311C55.2511 74.04 56.3711 74.96 58.2511 74.96C60.3311 74.96 61.4311 73.86 61.4311 71.78V69.58C60.7911 71.06 59.5111 71.92 57.9511 71.92C55.2911 71.92 53.5111 69.78 53.5111 66.58C53.5111 63.38 55.2711 61.26 57.9311 61.26C59.5111 61.26 60.8311 62.16 61.5111 63.7V61.46H62.8111V71.76C62.8111 74.48 61.1511 76.08 58.2711 76.08ZM54.9111 66.58C54.9111 69.16 56.1311 70.72 58.1511 70.72C60.1311 70.72 61.4511 69.12 61.4511 66.68C61.4511 64.1 60.1511 62.46 58.1511 62.46C56.1511 62.46 54.9111 64.02 54.9111 66.58ZM70.5936 72.2C67.6336 72.2 65.6736 69.98 65.6736 66.64C65.6736 63.56 67.7136 61.26 70.5136 61.26C73.5136 61.26 75.4736 63.68 75.2336 67.06H67.0736C67.1936 69.56 68.5136 71.1 70.5736 71.1C72.3336 71.1 73.5536 70.12 73.8936 68.44H75.2736C74.7936 70.78 73.0136 72.2 70.5936 72.2ZM70.4936 62.34C68.5936 62.34 67.2536 63.8 67.0736 66.1H73.7736C73.6536 63.74 72.4336 62.34 70.4936 62.34ZM84.327 66.36V72H82.927V61.46H84.227V63.86C84.947 62.3 86.507 61.3 88.247 61.3V62.76C86.027 62.68 84.327 64.06 84.327 66.36ZM94.6788 72.2C91.7188 72.2 89.7588 69.98 89.7588 66.64C89.7588 63.56 91.7988 61.26 94.5988 61.26C97.5988 61.26 99.5588 63.68 99.3188 67.06H91.1588C91.2788 69.56 92.5988 71.1 94.6588 71.1C96.4188 71.1 97.6388 70.12 97.9788 68.44H99.3588C98.8788 70.78 97.0988 72.2 94.6788 72.2ZM94.5788 62.34C92.6788 62.34 91.3388 63.8 91.1588 66.1H97.8588C97.7388 63.74 96.5188 62.34 94.5788 62.34ZM111.893 66.72C111.893 69.98 110.073 72.2 107.273 72.2C105.693 72.2 104.353 71.34 103.633 69.84V75.86H102.233V61.46H103.533V63.74C104.253 62.18 105.653 61.26 107.273 61.26C110.073 61.26 111.893 63.5 111.893 66.72ZM110.473 66.72C110.473 64.06 109.093 62.48 107.033 62.48C105.073 62.48 103.613 64.04 103.613 66.72C103.613 69.34 105.033 70.98 107.033 70.98C109.093 70.98 110.473 69.42 110.473 66.72ZM118.967 72.2C116.067 72.2 113.967 69.9 113.967 66.72C113.967 63.56 116.067 61.28 118.967 61.28C121.887 61.28 123.987 63.56 123.987 66.72C123.987 69.9 121.887 72.2 118.967 72.2ZM118.967 70.98C121.027 70.98 122.567 69.34 122.567 66.72C122.567 64.14 121.027 62.5 118.967 62.5C116.927 62.5 115.387 64.14 115.387 66.72C115.387 69.34 116.927 70.98 118.967 70.98ZM128.25 66.36V72H126.85V61.46H128.15V63.86C128.87 62.3 130.43 61.3 132.17 61.3V62.76C129.95 62.68 128.25 64.06 128.25 66.36ZM140.527 70.66V71.9C139.987 72.12 139.527 72.2 139.007 72.2C137.267 72.2 135.927 71.3 135.927 69.02V62.64H133.447V61.46H135.927V58.34H137.327V61.46H140.627V62.64H137.327V68.72C137.327 70.36 138.127 70.92 139.287 70.92C139.727 70.92 140.087 70.84 140.527 70.66ZM151.204 69.06C151.204 71 149.644 72.2 147.044 72.2C144.424 72.2 142.824 70.88 142.624 68.7H143.964C144.064 70.2 145.244 71.14 147.044 71.14C148.764 71.14 149.804 70.48 149.804 69.28C149.804 68.24 149.204 67.76 147.604 67.44L146.084 67.14C144.084 66.76 143.024 65.78 143.024 64.26C143.024 62.5 144.584 61.26 146.884 61.26C149.304 61.26 150.904 62.56 151.064 64.66H149.744C149.604 63.2 148.544 62.34 146.884 62.34C145.404 62.34 144.384 63.04 144.384 64.14C144.384 65.18 145.024 65.68 146.584 65.98L148.164 66.28C150.264 66.68 151.204 67.56 151.204 69.06ZM165.496 72V70.08C164.876 71.4 163.596 72.2 161.956 72.2C159.776 72.2 158.356 70.98 158.356 69.08C158.356 67.02 159.996 65.94 163.196 65.94C163.836 65.94 164.316 65.98 165.356 66.06V65.18C165.356 63.42 164.416 62.38 162.816 62.38C161.096 62.38 160.016 63.44 159.996 65.16H158.716C158.776 62.82 160.396 61.26 162.796 61.26C165.256 61.26 166.696 62.7 166.696 65.14V72H165.496ZM159.696 69.04C159.696 70.32 160.676 71.18 162.156 71.18C164.116 71.18 165.356 69.9 165.356 67.92V66.98C164.456 66.9 163.836 66.88 163.256 66.88C160.856 66.88 159.696 67.58 159.696 69.04ZM171.641 65.86V72H170.241V61.46H171.541V63.44C172.221 62.14 173.501 61.26 175.021 61.26C177.221 61.26 178.641 62.66 178.641 65.16V72H177.241V65.64C177.241 63.62 176.321 62.48 174.601 62.48C172.961 62.48 171.641 63.9 171.641 65.86ZM181.409 66.72C181.409 63.48 183.209 61.26 186.049 61.26C187.629 61.26 188.969 62.16 189.669 63.66V57.64H191.069V72H189.769V69.78C189.029 71.32 187.669 72.2 186.049 72.2C183.209 72.2 181.409 69.96 181.409 66.72ZM182.829 66.72C182.829 69.4 184.189 70.98 186.249 70.98C188.289 70.98 189.689 69.32 189.689 66.68C189.689 64.02 188.249 62.48 186.249 62.48C184.189 62.48 182.829 64.04 182.829 66.72ZM205.962 72V70.08C205.342 71.4 204.062 72.2 202.422 72.2C200.242 72.2 198.822 70.98 198.822 69.08C198.822 67.02 200.462 65.94 203.662 65.94C204.302 65.94 204.782 65.98 205.822 66.06V65.18C205.822 63.42 204.882 62.38 203.282 62.38C201.562 62.38 200.482 63.44 200.462 65.16H199.182C199.242 62.82 200.862 61.26 203.262 61.26C205.722 61.26 207.162 62.7 207.162 65.14V72H205.962ZM200.162 69.04C200.162 70.32 201.142 71.18 202.622 71.18C204.582 71.18 205.822 69.9 205.822 67.92V66.98C204.922 66.9 204.302 66.88 203.722 66.88C201.322 66.88 200.162 67.58 200.162 69.04ZM212.108 65.86V72H210.708V61.46H212.008V63.44C212.688 62.14 213.968 61.26 215.488 61.26C217.688 61.26 219.108 62.66 219.108 65.16V72H217.708V65.64C217.708 63.62 216.788 62.48 215.067 62.48C213.428 62.48 212.108 63.9 212.108 65.86ZM224.055 65.86V72H222.655V61.46H223.955V63.44C224.635 62.14 225.915 61.26 227.435 61.26C229.635 61.26 231.055 62.66 231.055 65.16V72H229.655V65.64C229.655 63.62 228.735 62.48 227.015 62.48C225.375 62.48 224.055 63.9 224.055 65.86ZM238.823 72.2C235.923 72.2 233.823 69.9 233.823 66.72C233.823 63.56 235.923 61.28 238.823 61.28C241.743 61.28 243.843 63.56 243.843 66.72C243.843 69.9 241.743 72.2 238.823 72.2ZM238.823 70.98C240.883 70.98 242.423 69.34 242.423 66.72C242.423 64.14 240.883 62.5 238.823 62.5C236.783 62.5 235.243 64.14 235.243 66.72C235.243 69.34 236.783 70.98 238.823 70.98ZM253.447 67.74V61.46H254.827V72H253.527V70.1C252.987 71.32 251.707 72.2 250.167 72.2C248.027 72.2 246.607 70.98 246.607 68.32V61.46H248.007V68.02C248.007 70.16 249.067 70.98 250.547 70.98C252.227 70.98 253.447 69.62 253.447 67.74ZM259.859 65.86V72H258.459V61.46H259.759V63.44C260.439 62.14 261.719 61.26 263.239 61.26C265.439 61.26 266.859 62.66 266.859 65.16V72H265.459V65.64C265.459 63.62 264.539 62.48 262.819 62.48C261.179 62.48 259.859 63.9 259.859 65.86ZM274.347 72.22C271.567 72.22 269.627 69.96 269.627 66.72C269.627 63.52 271.587 61.26 274.347 61.26C276.807 61.26 278.567 62.9 278.987 65.54H277.567C277.247 63.62 276.047 62.48 274.347 62.48C272.387 62.48 271.047 64.2 271.047 66.72C271.047 69.28 272.387 71 274.347 71C276.067 71 277.247 69.88 277.567 67.92H278.987C278.607 70.6 276.827 72.22 274.347 72.22ZM285.85 72.2C282.89 72.2 280.93 69.98 280.93 66.64C280.93 63.56 282.97 61.26 285.77 61.26C288.77 61.26 290.73 63.68 290.49 67.06H282.33C282.45 69.56 283.77 71.1 285.83 71.1C287.59 71.1 288.81 70.12 289.15 68.44H290.53C290.05 70.78 288.27 72.2 285.85 72.2ZM285.75 62.34C283.85 62.34 282.51 63.8 282.33 66.1H289.03C288.91 63.74 287.69 62.34 285.75 62.34ZM294.804 72H293.404V61.46H294.704V63.44C295.404 62.08 296.644 61.26 298.144 61.26C299.784 61.26 301.004 62.16 301.444 63.7C302.104 62.22 303.424 61.26 305.084 61.26C307.264 61.26 308.624 62.7 308.624 65.16V72H307.244V65.62C307.244 63.62 306.324 62.48 304.624 62.48C303.024 62.48 301.724 63.88 301.724 65.82V72H300.324V65.62C300.324 63.62 299.404 62.48 297.704 62.48C296.084 62.48 294.804 63.88 294.804 65.82V72ZM316.308 72.2C313.348 72.2 311.388 69.98 311.388 66.64C311.388 63.56 313.428 61.26 316.228 61.26C319.228 61.26 321.188 63.68 320.948 67.06H312.788C312.908 69.56 314.228 71.1 316.288 71.1C318.048 71.1 319.268 70.12 319.608 68.44H320.988C320.508 70.78 318.728 72.2 316.308 72.2ZM316.208 62.34C314.308 62.34 312.968 63.8 312.788 66.1H319.488C319.368 63.74 318.148 62.34 316.208 62.34ZM325.261 65.86V72H323.861V61.46H325.161V63.44C325.841 62.14 327.121 61.26 328.641 61.26C330.841 61.26 332.261 62.66 332.261 65.16V72H330.861V65.64C330.861 63.62 329.941 62.48 328.221 62.48C326.581 62.48 325.261 63.9 325.261 65.86ZM341.21 70.66V71.9C340.67 72.12 340.21 72.2 339.69 72.2C337.95 72.2 336.61 71.3 336.61 69.02V62.64H334.13V61.46H336.61V58.34H338.01V61.46H341.31V62.64H338.01V68.72C338.01 70.36 338.81 70.92 339.97 70.92C340.41 70.92 340.77 70.84 341.21 70.66ZM351.887 69.06C351.887 71 350.327 72.2 347.727 72.2C345.107 72.2 343.507 70.88 343.307 68.7H344.647C344.747 70.2 345.927 71.14 347.727 71.14C349.447 71.14 350.487 70.48 350.487 69.28C350.487 68.24 349.887 67.76 348.287 67.44L346.767 67.14C344.767 66.76 343.707 65.78 343.707 64.26C343.707 62.5 345.267 61.26 347.567 61.26C349.987 61.26 351.587 62.56 351.747 64.66H350.427C350.287 63.2 349.227 62.34 347.567 62.34C346.087 62.34 345.067 63.04 345.067 64.14C345.067 65.18 345.707 65.68 347.267 65.98L348.847 66.28C350.947 66.68 351.887 67.56 351.887 69.06ZM357.239 70.84C357.239 71.56 356.719 72.1 355.979 72.1C355.259 72.1 354.719 71.56 354.719 70.84C354.719 70.08 355.259 69.56 355.979 69.56C356.719 69.56 357.239 70.08 357.239 70.84Z" fill="#201F23"/>
</svg>
