<svg width="24" height="25" viewBox="0 0 24 25" fill="none" xmlns="http://www.w3.org/2000/svg">
<path d="M10.5 15.9662H9.5C9.224 15.9662 9 15.7422 9 15.4662C9 15.1902 9.224 14.9662 9.5 14.9662H10.5C10.776 14.9662 11 15.1902 11 15.4662C11 15.7422 10.776 15.9662 10.5 15.9662ZM15 15.4662C15 15.1902 14.776 14.9662 14.5 14.9662H13.5C13.224 14.9662 13 15.1902 13 15.4662C13 15.7422 13.224 15.9662 13.5 15.9662H14.5C14.776 15.9662 15 15.7422 15 15.4662ZM11 19.4662C11 19.1902 10.776 18.9662 10.5 18.9662H9.5C9.224 18.9662 9 19.1902 9 19.4662C9 19.7422 9.224 19.9662 9.5 19.9662H10.5C10.776 19.9662 11 19.7422 11 19.4662ZM15 19.4662C15 19.1902 14.776 18.9662 14.5 18.9662H13.5C13.224 18.9662 13 19.1902 13 19.4662C13 19.7422 13.224 19.9662 13.5 19.9662H14.5C14.776 19.9662 15 19.7422 15 19.4662ZM11 7.46625C11 7.19025 10.776 6.96625 10.5 6.96625H9.5C9.224 6.96625 9 7.19025 9 7.46625C9 7.74225 9.224 7.96625 9.5 7.96625H10.5C10.776 7.96625 11 7.74225 11 7.46625ZM15 7.46625C15 7.19025 14.776 6.96625 14.5 6.96625H13.5C13.224 6.96625 13 7.19025 13 7.46625C13 7.74225 13.224 7.96625 13.5 7.96625H14.5C14.776 7.96625 15 7.74225 15 7.46625ZM11 11.4662C11 11.1902 10.776 10.9662 10.5 10.9662H9.5C9.224 10.9662 9 11.1902 9 11.4662C9 11.7422 9.224 11.9662 9.5 11.9662H10.5C10.776 11.9662 11 11.7422 11 11.4662ZM15 11.4662C15 11.1902 14.776 10.9662 14.5 10.9662H13.5C13.224 10.9662 13 11.1902 13 11.4662C13 11.7422 13.224 11.9662 13.5 11.9662H14.5C14.776 11.9662 15 11.7422 15 11.4662ZM24 20.4082V10.4662C24 7.98525 21.981 5.96625 19.5 5.96625H19V5.52425C19 3.01125 16.956 0.966248 14.442 0.966248H9.5C7.019 0.966248 5 2.98525 5 5.46625V9.96625H4.5C2.019 9.96625 0 11.9852 0 14.4662V20.4662C0 22.9472 2.019 24.9662 4.5 24.9662H19.442C21.955 24.9662 24 22.9212 24 20.4082ZM5.5 10.9662C5.776 10.9662 6 10.7422 6 10.4662V5.46625C6 3.53625 7.57 1.96625 9.5 1.96625H14.442C16.404 1.96625 18 3.56225 18 5.52425V6.46625C18 6.74225 18.224 6.96625 18.5 6.96625H19.5C21.43 6.96625 23 8.53625 23 10.4662V20.4082C23 22.3702 21.404 23.9662 19.442 23.9662H4.5C2.57 23.9662 1 22.3962 1 20.4662V14.4662C1 12.5362 2.57 10.9662 4.5 10.9662H5.5ZM20 15.4662C20 15.1902 19.776 14.9662 19.5 14.9662H18.5C18.224 14.9662 18 15.1902 18 15.4662C18 15.7422 18.224 15.9662 18.5 15.9662H19.5C19.776 15.9662 20 15.7422 20 15.4662ZM20 19.4662C20 19.1902 19.776 18.9662 19.5 18.9662H18.5C18.224 18.9662 18 19.1902 18 19.4662C18 19.7422 18.224 19.9662 18.5 19.9662H19.5C19.776 19.9662 20 19.7422 20 19.4662ZM6 15.4662C6 15.1902 5.776 14.9662 5.5 14.9662H4.5C4.224 14.9662 4 15.1902 4 15.4662C4 15.7422 4.224 15.9662 4.5 15.9662H5.5C5.776 15.9662 6 15.7422 6 15.4662ZM6 19.4662C6 19.1902 5.776 18.9662 5.5 18.9662H4.5C4.224 18.9662 4 19.1902 4 19.4662C4 19.7422 4.224 19.9662 4.5 19.9662H5.5C5.776 19.9662 6 19.7422 6 19.4662ZM20 11.4662C20 11.1902 19.776 10.9662 19.5 10.9662H18.5C18.224 10.9662 18 11.1902 18 11.4662C18 11.7422 18.224 11.9662 18.5 11.9662H19.5C19.776 11.9662 20 11.7422 20 11.4662Z" fill="black"/>
</svg>
