<svg width="95" height="12" viewBox="0 0 95 12" fill="none" xmlns="http://www.w3.org/2000/svg">
<path d="M0.84 11.3334V1.53337H4.445C4.977 1.53337 5.45533 1.66404 5.88 1.92537C6.30467 2.18671 6.64067 2.53904 6.888 2.98237C7.14 3.42104 7.266 3.91104 7.266 4.45237C7.266 4.90971 7.17967 5.32737 7.007 5.70537C6.839 6.08337 6.601 6.40537 6.293 6.67137C5.98967 6.93737 5.642 7.12871 5.25 7.24537L7.616 11.3334H5.929L3.633 7.37837H2.296V11.3334H0.84ZM2.296 5.92237H4.291C4.571 5.92237 4.82533 5.85237 5.054 5.71237C5.28733 5.57237 5.47167 5.38571 5.607 5.15237C5.74233 4.91904 5.81 4.65537 5.81 4.36137C5.81 4.06737 5.74233 3.80371 5.607 3.57037C5.47167 3.33237 5.28733 3.14571 5.054 3.01037C4.82533 2.87037 4.571 2.80037 4.291 2.80037H2.296V5.92237ZM11.8993 11.5154C11.2553 11.5154 10.6673 11.3497 10.1353 11.0184C9.60796 10.687 9.18563 10.2437 8.8683 9.68837C8.55563 9.12837 8.3993 8.51004 8.3993 7.83337C8.3993 7.32004 8.4903 6.84171 8.6723 6.39837C8.8543 5.95037 9.10396 5.55837 9.4213 5.22237C9.7433 4.88171 10.1166 4.61571 10.5413 4.42437C10.966 4.23304 11.4186 4.13737 11.8993 4.13737C12.436 4.13737 12.9283 4.24937 13.3763 4.47337C13.8243 4.69271 14.207 4.99837 14.5243 5.39037C14.8416 5.77771 15.075 6.22571 15.2243 6.73437C15.3736 7.23837 15.418 7.77504 15.3573 8.34437H9.9603C10.021 8.66637 10.1376 8.95804 10.3103 9.21937C10.4876 9.47604 10.7116 9.67904 10.9823 9.82837C11.2576 9.97771 11.5633 10.0547 11.8993 10.0594C12.254 10.0594 12.576 9.97071 12.8653 9.79337C13.1593 9.61604 13.3996 9.37104 13.5863 9.05837L15.0633 9.40137C14.7833 10.022 14.361 10.5307 13.7963 10.9274C13.2316 11.3194 12.5993 11.5154 11.8993 11.5154ZM9.9113 7.23137H13.8873C13.8406 6.89537 13.7216 6.59204 13.5303 6.32137C13.3436 6.04604 13.108 5.82904 12.8233 5.67037C12.5433 5.50704 12.2353 5.42537 11.8993 5.42537C11.568 5.42537 11.26 5.50471 10.9753 5.66337C10.6953 5.82204 10.462 6.03904 10.2753 6.31437C10.0933 6.58504 9.97196 6.89071 9.9113 7.23137ZM16.7166 11.3334V4.33337H18.1726V5.07537C18.4152 4.78604 18.7116 4.55737 19.0616 4.38937C19.4162 4.22137 19.7989 4.13737 20.2096 4.13737C20.7089 4.13737 21.1686 4.25871 21.5886 4.50137C22.0086 4.73937 22.3422 5.05671 22.5896 5.45337C22.8369 5.05671 23.1659 4.73937 23.5766 4.50137C23.9919 4.25871 24.4492 4.13737 24.9486 4.13737C25.4666 4.13737 25.9379 4.26337 26.3626 4.51537C26.7872 4.76737 27.1256 5.10571 27.3776 5.53037C27.6296 5.95504 27.7556 6.42637 27.7556 6.94437V11.3334H26.2996V7.31537C26.2996 7.00737 26.2249 6.72504 26.0756 6.46837C25.9262 6.21171 25.7256 6.00404 25.4736 5.84537C25.2216 5.68671 24.9416 5.60737 24.6336 5.60737C24.3256 5.60737 24.0456 5.68204 23.7936 5.83137C23.5416 5.98071 23.3409 6.18371 23.1916 6.44037C23.0422 6.69704 22.9676 6.98871 22.9676 7.31537V11.3334H21.5116V7.31537C21.5116 6.98871 21.4369 6.69704 21.2876 6.44037C21.1382 6.18371 20.9352 5.98071 20.6786 5.83137C20.4266 5.68204 20.1466 5.60737 19.8386 5.60737C19.5352 5.60737 19.2552 5.68671 18.9986 5.84537C18.7466 6.00404 18.5459 6.21171 18.3966 6.46837C18.2472 6.72504 18.1726 7.00737 18.1726 7.31537V11.3334H16.7166ZM32.3013 11.5154C31.6573 11.5154 31.0693 11.3497 30.5373 11.0184C30.0099 10.687 29.5876 10.2437 29.2703 9.68837C28.9576 9.12837 28.8013 8.51004 28.8013 7.83337C28.8013 7.32004 28.8923 6.84171 29.0743 6.39837C29.2563 5.95037 29.5059 5.55837 29.8233 5.22237C30.1453 4.88171 30.5186 4.61571 30.9433 4.42437C31.3679 4.23304 31.8206 4.13737 32.3013 4.13737C32.8379 4.13737 33.3303 4.24937 33.7783 4.47337C34.2263 4.69271 34.6089 4.99837 34.9263 5.39037C35.2436 5.77771 35.4769 6.22571 35.6263 6.73437C35.7756 7.23837 35.8199 7.77504 35.7593 8.34437H30.3623C30.4229 8.66637 30.5396 8.95804 30.7123 9.21937C30.8896 9.47604 31.1136 9.67904 31.3843 9.82837C31.6596 9.97771 31.9653 10.0547 32.3013 10.0594C32.6559 10.0594 32.9779 9.97071 33.2673 9.79337C33.5613 9.61604 33.8016 9.37104 33.9883 9.05837L35.4653 9.40137C35.1853 10.022 34.7629 10.5307 34.1983 10.9274C33.6336 11.3194 33.0013 11.5154 32.3013 11.5154ZM30.3133 7.23137H34.2893C34.2426 6.89537 34.1236 6.59204 33.9323 6.32137C33.7456 6.04604 33.5099 5.82904 33.2253 5.67037C32.9453 5.50704 32.6373 5.42537 32.3013 5.42537C31.9699 5.42537 31.6619 5.50471 31.3773 5.66337C31.0973 5.82204 30.8639 6.03904 30.6773 6.31437C30.4953 6.58504 30.3739 6.89071 30.3133 7.23137ZM37.1185 11.3334V4.33337H38.5745V5.07537C38.8172 4.78604 39.1135 4.55737 39.4635 4.38937C39.8182 4.22137 40.2008 4.13737 40.6115 4.13737C41.1108 4.13737 41.5705 4.25871 41.9905 4.50137C42.4105 4.73937 42.7442 5.05671 42.9915 5.45337C43.2388 5.05671 43.5678 4.73937 43.9785 4.50137C44.3938 4.25871 44.8512 4.13737 45.3505 4.13737C45.8685 4.13737 46.3398 4.26337 46.7645 4.51537C47.1892 4.76737 47.5275 5.10571 47.7795 5.53037C48.0315 5.95504 48.1575 6.42637 48.1575 6.94437V11.3334H46.7015V7.31537C46.7015 7.00737 46.6268 6.72504 46.4775 6.46837C46.3282 6.21171 46.1275 6.00404 45.8755 5.84537C45.6235 5.68671 45.3435 5.60737 45.0355 5.60737C44.7275 5.60737 44.4475 5.68204 44.1955 5.83137C43.9435 5.98071 43.7428 6.18371 43.5935 6.44037C43.4442 6.69704 43.3695 6.98871 43.3695 7.31537V11.3334H41.9135V7.31537C41.9135 6.98871 41.8388 6.69704 41.6895 6.44037C41.5402 6.18371 41.3372 5.98071 41.0805 5.83137C40.8285 5.68204 40.5485 5.60737 40.2405 5.60737C39.9372 5.60737 39.6572 5.68671 39.4005 5.84537C39.1485 6.00404 38.9478 6.21171 38.7985 6.46837C38.6492 6.72504 38.5745 7.00737 38.5745 7.31537V11.3334H37.1185ZM53.4546 4.13737C54.1359 4.13737 54.7543 4.30304 55.3096 4.63437C55.8696 4.96571 56.3153 5.41137 56.6466 5.97137C56.9779 6.52671 57.1436 7.14504 57.1436 7.82637C57.1436 8.33504 57.0479 8.81337 56.8566 9.26137C56.6653 9.70471 56.3993 10.0967 56.0586 10.4374C55.7226 10.7734 55.3306 11.037 54.8826 11.2284C54.4393 11.4197 53.9633 11.5154 53.4546 11.5154C52.9646 11.5154 52.5353 11.4034 52.1666 11.1794C51.8026 10.9507 51.5039 10.659 51.2706 10.3044V11.3334H49.8146V0.833373H51.2706V5.34837C51.5039 4.98904 51.8026 4.69737 52.1666 4.47337C52.5353 4.24937 52.9646 4.13737 53.4546 4.13737ZM53.4406 10.1014C53.8466 10.1014 54.2176 9.99871 54.5536 9.79337C54.8896 9.58804 55.1556 9.31271 55.3516 8.96737C55.5523 8.62204 55.6526 8.24171 55.6526 7.82637C55.6526 7.40171 55.5523 7.01671 55.3516 6.67137C55.1509 6.32604 54.8826 6.05304 54.5466 5.85237C54.2106 5.64704 53.8419 5.54437 53.4406 5.54437C53.0346 5.54437 52.6776 5.64704 52.3696 5.85237C52.0616 6.05771 51.8213 6.33304 51.6486 6.67837C51.4759 7.02371 51.3896 7.40637 51.3896 7.82637C51.3896 8.24637 51.4759 8.62904 51.6486 8.97437C51.8213 9.31971 52.0616 9.59504 52.3696 9.80037C52.6776 10.001 53.0346 10.1014 53.4406 10.1014ZM61.5438 11.5154C60.8998 11.5154 60.3118 11.3497 59.7798 11.0184C59.2525 10.687 58.8302 10.2437 58.5128 9.68837C58.2002 9.12837 58.0438 8.51004 58.0438 7.83337C58.0438 7.32004 58.1348 6.84171 58.3168 6.39837C58.4988 5.95037 58.7485 5.55837 59.0658 5.22237C59.3878 4.88171 59.7612 4.61571 60.1858 4.42437C60.6105 4.23304 61.0632 4.13737 61.5438 4.13737C62.0805 4.13737 62.5728 4.24937 63.0208 4.47337C63.4688 4.69271 63.8515 4.99837 64.1688 5.39037C64.4862 5.77771 64.7195 6.22571 64.8688 6.73437C65.0182 7.23837 65.0625 7.77504 65.0018 8.34437H59.6048C59.6655 8.66637 59.7822 8.95804 59.9548 9.21937C60.1322 9.47604 60.3562 9.67904 60.6268 9.82837C60.9022 9.97771 61.2078 10.0547 61.5438 10.0594C61.8985 10.0594 62.2205 9.97071 62.5098 9.79337C62.8038 9.61604 63.0442 9.37104 63.2308 9.05837L64.7078 9.40137C64.4278 10.022 64.0055 10.5307 63.4408 10.9274C62.8762 11.3194 62.2438 11.5154 61.5438 11.5154ZM59.5558 7.23137H63.5318C63.4852 6.89537 63.3662 6.59204 63.1748 6.32137C62.9882 6.04604 62.7525 5.82904 62.4678 5.67037C62.1878 5.50704 61.8798 5.42537 61.5438 5.42537C61.2125 5.42537 60.9045 5.50471 60.6198 5.66337C60.3398 5.82204 60.1065 6.03904 59.9198 6.31437C59.7378 6.58504 59.6165 6.89071 59.5558 7.23137ZM66.3611 11.3334V4.33337H67.8171V5.07537C68.0598 4.78604 68.3584 4.55737 68.7131 4.38937C69.0678 4.22137 69.4504 4.13737 69.8611 4.13737C70.1224 4.13737 70.3814 4.17237 70.6381 4.24237L70.0571 5.71237C69.8751 5.64237 69.6931 5.60737 69.5111 5.60737C69.2031 5.60737 68.9208 5.68437 68.6641 5.83837C68.4074 5.98771 68.2021 6.19071 68.0481 6.44737C67.8941 6.70404 67.8171 6.98871 67.8171 7.30137V11.3334H66.3611ZM75.388 11.3334V4.33337H76.844V5.07537C77.0867 4.78604 77.3831 4.55737 77.7331 4.38937C78.0877 4.22137 78.4704 4.13737 78.8811 4.13737C79.3804 4.13737 79.8401 4.25871 80.2601 4.50137C80.6801 4.73937 81.0137 5.05671 81.2611 5.45337C81.5084 5.05671 81.8374 4.73937 82.2481 4.50137C82.6634 4.25871 83.1207 4.13737 83.62 4.13737C84.1381 4.13737 84.6094 4.26337 85.0341 4.51537C85.4587 4.76737 85.7971 5.10571 86.0491 5.53037C86.3011 5.95504 86.4271 6.42637 86.4271 6.94437V11.3334H84.9711V7.31537C84.9711 7.00737 84.8964 6.72504 84.7471 6.46837C84.5977 6.21171 84.3971 6.00404 84.1451 5.84537C83.8931 5.68671 83.6131 5.60737 83.3051 5.60737C82.9971 5.60737 82.7171 5.68204 82.4651 5.83137C82.2131 5.98071 82.0124 6.18371 81.8631 6.44037C81.7137 6.69704 81.6391 6.98871 81.6391 7.31537V11.3334H80.1831V7.31537C80.1831 6.98871 80.1084 6.69704 79.9591 6.44037C79.8097 6.18371 79.6067 5.98071 79.3501 5.83137C79.0981 5.68204 78.8181 5.60737 78.5101 5.60737C78.2067 5.60737 77.9267 5.68671 77.67 5.84537C77.4181 6.00404 77.2174 6.21171 77.0681 6.46837C76.9187 6.72504 76.844 7.00737 76.844 7.31537V11.3334H75.388ZM90.9727 11.5154C90.3287 11.5154 89.7407 11.3497 89.2087 11.0184C88.6814 10.687 88.2591 10.2437 87.9417 9.68837C87.6291 9.12837 87.4727 8.51004 87.4727 7.83337C87.4727 7.32004 87.5637 6.84171 87.7457 6.39837C87.9277 5.95037 88.1774 5.55837 88.4947 5.22237C88.8167 4.88171 89.1901 4.61571 89.6147 4.42437C90.0394 4.23304 90.4921 4.13737 90.9727 4.13737C91.5094 4.13737 92.0017 4.24937 92.4497 4.47337C92.8977 4.69271 93.2804 4.99837 93.5977 5.39037C93.9151 5.77771 94.1484 6.22571 94.2977 6.73437C94.4471 7.23837 94.4914 7.77504 94.4307 8.34437H89.0337C89.0944 8.66637 89.2111 8.95804 89.3837 9.21937C89.5611 9.47604 89.7851 9.67904 90.0557 9.82837C90.3311 9.97771 90.6367 10.0547 90.9727 10.0594C91.3274 10.0594 91.6494 9.97071 91.9387 9.79337C92.2327 9.61604 92.4731 9.37104 92.6597 9.05837L94.1367 9.40137C93.8567 10.022 93.4344 10.5307 92.8697 10.9274C92.3051 11.3194 91.6727 11.5154 90.9727 11.5154ZM88.9847 7.23137H92.9607C92.9141 6.89537 92.7951 6.59204 92.6037 6.32137C92.4171 6.04604 92.1814 5.82904 91.8967 5.67037C91.6167 5.50704 91.3087 5.42537 90.9727 5.42537C90.6414 5.42537 90.3334 5.50471 90.0487 5.66337C89.7687 5.82204 89.5354 6.03904 89.3487 6.31437C89.1667 6.58504 89.0454 6.89071 88.9847 7.23137Z" fill="#212121"/>
</svg>
