<svg width="147" height="41" viewBox="0 0 147 41" fill="none" xmlns="http://www.w3.org/2000/svg">
<rect x="0.5" y="1.4325" width="146" height="39" rx="7.5" stroke="#E1E8EE"/>
<path opacity="0.66" d="M31.6875 25.9325L29.5595 18.0505L27.4175 25.9325H25.8355L23.2175 15.8805H24.7295L26.6615 23.6225L28.7755 15.8805H30.3715L32.4575 23.6365L34.3895 15.8805H35.9015L33.2835 25.9325H31.6875ZM39.6586 26.0725C37.5166 26.0725 36.0746 24.5185 36.0746 22.1805C36.0746 19.9825 37.5726 18.3725 39.6166 18.3725C41.8286 18.3725 43.2986 20.1645 43.0466 22.5725H37.5166C37.6286 24.0845 38.3846 24.9665 39.6306 24.9665C40.6806 24.9665 41.4086 24.3925 41.6466 23.4265H43.0466C42.6826 25.0785 41.4086 26.0725 39.6586 26.0725ZM39.5886 19.4365C38.4546 19.4365 37.6846 20.2485 37.5306 21.6345H41.5486C41.4786 20.2625 40.7366 19.4365 39.5886 19.4365ZM47.5352 26.0725C45.3932 26.0725 43.9512 24.5185 43.9512 22.1805C43.9512 19.9825 45.4492 18.3725 47.4932 18.3725C49.7052 18.3725 51.1752 20.1645 50.9232 22.5725H45.3932C45.5052 24.0845 46.2612 24.9665 47.5072 24.9665C48.5572 24.9665 49.2852 24.3925 49.5232 23.4265H50.9232C50.5592 25.0785 49.2852 26.0725 47.5352 26.0725ZM47.4652 19.4365C46.3312 19.4365 45.5612 20.2485 45.4072 21.6345H49.4252C49.3552 20.2625 48.6132 19.4365 47.4652 19.4365ZM53.9106 25.9325H52.4966V15.8805H53.9106V21.8305L57.0886 18.5125H58.7546L55.3246 22.1105L59.0766 25.9325H57.2566L53.9106 22.4185V25.9325ZM59.2534 22.2225C59.2534 19.9685 60.5414 18.3725 62.5434 18.3725C63.5374 18.3725 64.4054 18.8765 64.9234 19.7865V15.8805H66.3374V25.9325H65.0214V24.6025C64.4894 25.5405 63.5934 26.0725 62.5434 26.0725C60.5414 26.0725 59.2534 24.4485 59.2534 22.2225ZM60.7234 22.2225C60.7234 23.8745 61.5914 24.8125 62.8234 24.8125C64.0274 24.8125 64.9234 23.8325 64.9234 22.1945C64.9234 20.5285 63.9994 19.6185 62.8234 19.6185C61.5914 19.6185 60.7234 20.5425 60.7234 22.2225ZM67.8409 22.2225C67.8409 19.9685 69.1429 18.3725 71.1869 18.3725C72.2649 18.3725 73.0909 18.8765 73.6089 19.8145V18.5125H74.9249V25.9325H73.6089V24.6025C73.0769 25.5405 72.1809 26.0725 71.1309 26.0725C69.1289 26.0725 67.8409 24.4485 67.8409 22.2225ZM69.3109 22.2225C69.3109 23.8745 70.1789 24.8125 71.4109 24.8125C72.6149 24.8125 73.5109 23.8325 73.5109 22.1945C73.5109 20.5285 72.5869 19.6185 71.4109 19.6185C70.1789 19.6185 69.3109 20.5425 69.3109 22.2225ZM83.0385 18.5125L79.3285 28.6345H77.7885L78.8525 25.8345L75.9265 18.5125H77.4525L79.6085 24.1685L81.6105 18.5125H83.0385Z" fill="#201F23"/>
<g opacity="0.66">
<path d="M120.333 18.0159L114.499 23.8492L108.666 18.0159" stroke="#201F23" stroke-width="1.25" strokelinecap="round" stroke-linejoin="round"/>
</g>
</svg>
